<?xml version="1.0" encoding="utf-8"?>
<!-- Generator: Adobe Illustrator 24.0.0, SVG Export Plug-In . SVG Version: 6.00 Build 0)  -->
<svg version="1.1" xmlns="http://www.w3.org/2000/svg" xmlns:xlink="http://www.w3.org/1999/xlink" x="0px" y="0px"
	 viewBox="0 0 500 500" style="enable-background:new 0 0 500 500;" xml:space="preserve">
<style type="text/css">
	.st0{fill:#F4F4F4;}
	.st1{fill:#38A663;}
	.st2{fill:#0B6D00;}
	.st3{fill:#7C4640;}
	.st4{fill:#020101;}
	.st5{fill:#8E574A;}
	.st6{fill:#F7F5EF;}
	.st7{fill:#AFC6F5;}
	.st8{opacity:0.5;fill:none;stroke:#0BE066;stroke-width:2;stroke-linecap:round;stroke-miterlimit:10;}
	.st9{fill:#4CCB93;}
	.st10{opacity:0.4;}
	.st11{fill:#3878FF;}
	.st12{fill:#B0D8FF;}
	.st13{fill:#BCCCFD;}
</style>
<g id="BACKGROUND">
</g>
<g id="OBJECTS">
	<g>
		<g>
			<polygon class="st0" points="94.63,332.01 93.54,341.27 87.02,358.21 92.98,360.05 97.57,342.38 98.17,332.42 			"/>
			<polygon class="st1" points="80.69,376.8 83.6,406.28 82.63,432.19 92.67,432.19 93.21,430.26 86.33,429.35 90,406.4 
				93.31,377.87 			"/>
			<polygon class="st2" points="77.37,376.47 75.09,401.58 59.71,422 61.55,431.64 66.14,431.64 63.38,429.58 62.92,423.38 
				77.61,406.86 90.92,377.26 			"/>
			<polygon class="st1" points="98.17,332.42 97.99,323.08 96.12,322.85 94.63,332.01 			"/>
			<g>
				<path class="st3" d="M79.92,345.36c-0.69,3.4-0.73,8.59,4.37,9.41c5.06,0.81,8.11-2.39,8.85-5.78c0.74-3.39-0.51-7.74-5.74-8.42
					C83.95,340.12,80.47,342.64,79.92,345.36z"/>
				<path class="st4" d="M83.58,354.53c-3.64-0.98-5.02-4.49-4.49-8.03c0.64-4.33,4.91-6.67,8.3-5.93c0.2,0.04,0.39,0.13,0.58,0.19
					c0.07,0.53,0.04,1.07-0.11,1.5c-0.58,1.67-2.07,3.07-3.77,3.58C84.09,345.84,83.03,353.43,83.58,354.53z"/>
				<path class="st3" d="M83.16,346.42c-0.51-0.08-1.05,0.05-1.5,0.3c-1.47,0.8-0.96,3.01,0.34,3.71c0.42,0.23,0.89,0.34,1.37,0.38
					c0.41,0.04,0.85,0.03,1.2-0.19c0.34-0.21,0.55-0.59,0.63-0.98c0.08-0.39,0.03-0.8-0.05-1.19
					C84.95,347.56,84.09,346.55,83.16,346.42z"/>
			</g>
			<path class="st5" d="M95.06,321.79c0,1.17,0.95,2.11,2.11,2.11s2.11-0.95,2.11-2.11c0-1.17-0.95-2.11-2.11-2.11
				S95.06,320.62,95.06,321.79z"/>
			<path class="st6" d="M104.98,335.96l-3.21,1.06c-1.3,3.78-3.48,7.19-6.34,9.98l-6,5.83l-7.39,4.99l-5.49,20.36l17.17,1.62
				l0.57-22.43l6.37-7.97c2.62-3.28,4.39-7.15,5.16-11.27L104.98,335.96z"/>
			<path class="st6" d="M113.12,285.21H89.19c-4.09,0-7.4,3.31-7.4,7.4v23.93c0,4.09,3.31,7.4,7.4,7.4h23.93
				c4.09,0,7.4-3.31,7.4-7.4v-23.93C120.52,288.53,117.21,285.21,113.12,285.21z"/>
			<path class="st7" d="M105.61,323.2c0,1.17,0.95,2.11,2.11,2.11c1.17,0,2.11-0.95,2.11-2.11c0-1.17-0.95-2.11-2.11-2.11
				C106.56,321.09,105.61,322.04,105.61,323.2z"/>
			<polygon class="st1" points="101.44,338.14 105.66,339.64 109.06,324.17 106.64,323.62 			"/>
			<path class="st1" d="M110.54,299.74c0,5.42-9.82,19.82-9.82,19.82s-9.82-14.4-9.82-19.82c0-5.42,4.4-9.82,9.82-9.82
				C106.14,289.91,110.54,294.31,110.54,299.74z"/>
			<path class="st6" d="M105.42,298.92c0,2.6-2.11,4.71-4.71,4.71c-2.6,0-4.71-2.11-4.71-4.71s2.11-4.71,4.71-4.71
				C103.32,294.21,105.42,296.32,105.42,298.92z"/>
			<line class="st8" x1="51.44" y1="432" x2="127.43" y2="432"/>
		</g>
		<g>
			<path class="st6" d="M289.42,145h-83.98c-4.74,0-8.59,3.85-8.59,8.59v200.82c0,4.74,3.85,8.59,8.59,8.59h83.98
				c4.74,0,8.59-3.85,8.59-8.59V153.59C298.01,148.85,294.17,145,289.42,145z"/>
			<path class="st1" d="M289.42,145h-83.98c-4.74,0-8.59,3.85-8.59,8.59v8.7h101.16v-8.7C298.01,148.85,294.17,145,289.42,145z"/>
			<path class="st1" d="M196.86,343.46v10.95c0,4.74,3.85,8.59,8.59,8.59h83.98c4.74,0,8.59-3.85,8.59-8.59v-10.95H196.86z"/>
			<path class="st1" d="M282.12,168.21h-23.93c-4.09,0-7.4,3.31-7.4,7.4v23.93c0,4.09,3.31,7.4,7.4,7.4h23.93
				c4.09,0,7.4-3.31,7.4-7.4v-23.93C289.52,171.53,286.21,168.21,282.12,168.21z"/>
			<path class="st9" d="M282.12,285.73h-23.93c-4.09,0-7.4,3.31-7.4,7.4v23.93c0,4.09,3.31,7.4,7.4,7.4h23.93
				c4.09,0,7.4-3.31,7.4-7.4v-23.93C289.52,289.04,286.21,285.73,282.12,285.73z"/>
			<path class="st1" d="M236.38,285.73h-23.93c-4.09,0-7.4,3.31-7.4,7.4v23.93c0,4.09,3.31,7.4,7.4,7.4h23.93
				c4.09,0,7.4-3.31,7.4-7.4v-23.93C243.78,289.04,240.47,285.73,236.38,285.73z"/>
			<line class="st8" x1="196.45" y1="363.99" x2="305.45" y2="363.99"/>
		</g>
		<g>
			<g>
				<g>
					
						<rect x="329.4" y="287.77" transform="matrix(0.9865 -0.164 0.164 0.9865 -49.3565 58.5318)" class="st2" width="1" height="80.98"/>
				</g>
				<g>
					
						<rect x="305.02" y="287.77" transform="matrix(0.9865 -0.164 0.164 0.9865 -49.6901 54.5392)" class="st9" width="1" height="80.98"/>
				</g>
				<g>
					<rect x="301.71" y="304.79" class="st9" width="24.6" height="1"/>
				</g>
				<g>
					<rect x="303.45" y="315.46" class="st9" width="24.6" height="1"/>
				</g>
				<g>
					<rect x="305.19" y="326.12" class="st9" width="24.6" height="1"/>
				</g>
				<g>
					<rect x="306.93" y="336.79" class="st9" width="24.6" height="1"/>
				</g>
				<g>
					<rect x="308.67" y="347.46" class="st9" width="24.6" height="1"/>
				</g>
				<g>
					<rect x="310.41" y="358.12" class="st9" width="24.6" height="1"/>
				</g>
			</g>
			<g>
				<g>
					
						<rect x="251.02" y="327.76" transform="matrix(0.1641 -0.9864 0.9864 0.1641 -80.1277 561.958)" class="st1" width="80.98" height="1"/>
				</g>
				<g>
					
						<rect x="275.4" y="327.76" transform="matrix(0.1641 -0.9864 0.9864 0.1641 -59.7617 585.9877)" class="st9" width="80.98" height="1"/>
				</g>
				<g>
					<rect x="295.11" y="304.79" class="st9" width="24.6" height="1"/>
				</g>
				<g>
					<rect x="293.37" y="315.46" class="st9" width="24.6" height="1"/>
				</g>
				<g>
					<rect x="291.62" y="326.12" class="st9" width="24.6" height="1"/>
				</g>
				<g>
					<rect x="289.88" y="336.79" class="st9" width="24.6" height="1"/>
				</g>
				<g>
					<rect x="288.14" y="347.46" class="st9" width="24.6" height="1"/>
				</g>
				<g>
					<rect x="286.4" y="358.12" class="st9" width="24.6" height="1"/>
				</g>
			</g>
			<g>
				<rect x="296.17" y="287.07" class="st2" width="30" height="3"/>
			</g>
		</g>
		<g>
			<polygon class="st6" points="352.35,273.59 349.42,243.39 345.64,211.08 348.58,210.66 355.29,241.29 365.78,242.13 
				376.69,211.08 379.62,211.5 371.65,244.65 372.07,272.76 			"/>
			<path class="st3" d="M356.09,232.33c-0.79,2.9,0.46,7.54,3.35,8.33c2.9,0.79,6.34-2.57,7.13-5.46c0.79-2.9-0.91-5.88-3.81-6.68
				C359.87,227.73,356.88,229.43,356.09,232.33z"/>
			<path class="st4" d="M359.96,230.65c-0.59-0.16-1.42-0.57-1.74-1.13c-0.03-0.05-0.04-0.1-0.06-0.15c1.29-0.93,2.95-1.31,4.6-0.86
				c2.9,0.79,4.6,3.78,3.81,6.68c-0.57,2.07-2.48,4.36-4.59,5.22c0.04-0.58,0.18-1.16,0.33-1.73c0.6-2.29,1.27-4.56,2-6.81
				C362.83,231.59,361.37,231.18,359.96,230.65z"/>
			<path class="st3" d="M363.34,235.08c0.39-0.29,0.93-0.42,1.38-0.22c0.1,0.04,0.2,0.11,0.28,0.18c0.22,0.22,0.28,0.55,0.25,0.85
				c-0.07,0.84-0.76,1.55-1.57,1.79c-0.23,0.07-0.47,0.11-0.71,0.07c-0.24-0.04-0.47-0.15-0.6-0.35
				C361.86,236.69,362.78,235.49,363.34,235.08z"/>
			<polygon class="st2" points="372.07,272.76 369.16,319.09 365.96,319.09 363.23,273.13 360.37,273.25 358.62,320.22 
				356.15,320.16 352.35,273.59 351.8,267.86 372,268.12 			"/>
			<polygon class="st2" points="369.16,319.09 376.21,319.86 375.95,320.96 365.63,320.96 365.96,319.09 			"/>
			<polygon class="st2" points="358.62,320.22 358.62,321.54 348.94,321.9 348.94,320.69 356.15,320.16 			"/>
			<path class="st4" d="M361.28,236.25c-1.76,0.19-3.17-1.59-4.92-1.81c-0.11-0.01-0.23-0.02-0.33,0.03
				c-0.13,0.06-0.21,0.2-0.27,0.33c-0.22,0.43-0.45,0.87-0.67,1.3c-0.23,0.44-0.46,0.89-0.56,1.38c-0.12,0.59-0.05,1.19,0.05,1.78
				c0.08,0.47,0.17,0.94,0.38,1.36c0.37,0.76,1.09,1.31,1.89,1.6c0.79,0.29,1.66,0.34,2.5,0.26c0.57-0.05,1.15-0.16,1.67-0.42
				c1.14-0.58,1.84-1.93,1.64-3.19c-0.05-0.31-0.15-0.62-0.11-0.94c0.03-0.31,0.19-0.58,0.34-0.85c0.17-0.31,1.34-1.83,0.43-1.84
				c-0.28,0-0.68,0.47-0.92,0.61C362.06,236.06,361.68,236.21,361.28,236.25z"/>
			<g class="st10">
				<polygon class="st7" points="372.93,221.79 377.15,221.79 379.62,211.5 376.69,211.08 				"/>
				<polygon class="st7" points="348.58,210.66 345.64,211.08 346.89,221.79 351.02,221.79 				"/>
			</g>
			<path class="st2" d="M420.32,178h-97.81c-4.8,0-8.69,3.89-8.69,8.69v14.56c0,4.8,3.89,8.69,8.69,8.69h97.81
				c4.8,0,8.69-3.89,8.69-8.69v-14.56C429.01,181.89,425.12,178,420.32,178z"/>
			<path class="st6" d="M417.43,178h-97.81c-4.8,0-8.69,3.89-8.69,8.69v14.56c0,4.8,3.89,8.69,8.69,8.69h97.81
				c4.8,0,8.69-3.89,8.69-8.69v-14.56C426.12,181.89,422.23,178,417.43,178z"/>
			<path class="st1" d="M418.84,202.56l-4.69-4.88c1.21-1.44,1.87-3.24,1.87-5.12c0-4.39-3.57-7.96-7.97-7.96
				c-4.39,0-7.96,3.57-7.96,7.96c0,4.39,3.57,7.97,7.96,7.97c1.65,0,3.22-0.5,4.56-1.44l4.73,4.92c0.2,0.21,0.46,0.32,0.75,0.32
				c0.27,0,0.52-0.1,0.72-0.29C419.22,203.63,419.23,202.97,418.84,202.56L418.84,202.56z M408.04,186.67
				c3.25,0,5.89,2.64,5.89,5.89c0,3.25-2.64,5.89-5.89,5.89c-3.24,0-5.89-2.64-5.89-5.89C402.16,189.31,404.8,186.67,408.04,186.67
				L408.04,186.67z M408.04,186.67"/>
			<line class="st8" x1="320.43" y1="322" x2="424.43" y2="322"/>
			<path class="st1" d="M349.26,209.4c0,1.39-1.13,2.52-2.52,2.52c-1.39,0-2.52-1.13-2.52-2.52c0-1.39,1.13-2.52,2.52-2.52
				C348.13,206.89,349.26,208.01,349.26,209.4z"/>
			<path class="st1" d="M379.65,210.12c0,1.39-1.13,2.52-2.52,2.52c-1.39,0-2.52-1.13-2.52-2.52c0-1.39,1.13-2.52,2.52-2.52
				C378.52,207.6,379.65,208.73,379.65,210.12z"/>
		</g>
		<g>
			<path class="st7" d="M256.91,217.52c0.54,1.42-0.17,3.02-1.59,3.56s-3.02-0.17-3.56-1.59c-0.54-1.42,0.17-3.02,1.59-3.56
				C254.78,215.38,256.37,216.09,256.91,217.52z"/>
			<path class="st3" d="M248.59,205.51l-23.57-4.14c-4.03-0.71-7.86,1.98-8.57,6.01l-4.14,23.57c-0.71,4.03,1.98,7.86,6.01,8.57
				l23.57,4.14c4.03,0.71,7.86-1.98,8.57-6.01l4.14-23.57C255.3,210.06,252.61,206.22,248.59,205.51z"/>
			<g>
				<polygon class="st1" points="256.28,217.81 263.72,220.72 285.36,222.77 278.14,227.86 262.94,224.21 255.17,220.65 				"/>
				<path class="st3" d="M282.42,214.53c1.2,3.13-0.37,6.64-3.5,7.83c-3.13,1.2-6.64-0.37-7.84-3.5c-1.2-3.13,0.37-6.64,3.5-7.84
					C277.72,209.84,281.23,211.4,282.42,214.53z"/>
				<polygon class="st1" points="305.14,239.62 302.64,264.87 303.47,287.06 294.87,287.06 294.41,285.41 300.31,284.62 
					297.16,264.97 294.32,240.53 				"/>
				<path class="st1" d="M252.82,220.43c3.17,1.29,13.81,4.12,17.22,3.84l7.14-0.58l7.38-1.95l16.21,7.95l-8.64,11.98l-14.77-12.29
					l-8.73-0.39c-3.59-0.16-13.77-4.05-16.87-5.88L252.82,220.43z"/>
				<path class="st4" d="M283.36,212.98c-1.26-2.86-6.34-3.56-9.17-2.22c-0.17,0.08-0.32,0.19-0.47,0.28
					c0.05,0.48,0.18,0.95,0.4,1.29c0.85,1.35,2.44,2.28,4.03,2.39c0,0,0.12,0.31,0.3,0.8c0.19-0.21,0.4-0.39,0.64-0.48
					c0.44-0.17,0.93-0.16,1.38-0.04c1.46,0.41,1.45,2.45,0.44,3.33c-0.32,0.28-0.72,0.47-1.13,0.61c-0.05,0.02-0.1,0.02-0.15,0.04
					c-0.13,1.96-0.01,2.19,0.42,2.81C282.36,220.1,285.02,216.75,283.36,212.98z"/>
				<polygon class="st2" points="331.61,236.27 317.1,242.59 300.39,229.75 291.82,241.5 317.09,249.26 332.05,239.23 
					335.23,242.78 336.3,241.74 				"/>
				<path class="st7" d="M253.71,220.34c0.54,1.42-0.17,3.02-1.59,3.56c-1.42,0.54-3.02-0.17-3.56-1.59
					c-0.54-1.42,0.17-3.02,1.59-3.56C251.58,218.21,253.17,218.92,253.71,220.34z"/>
			</g>
			<g>
				<path class="st9" d="M133.63,150.59h19.57v196.67h-19.57V150.59z M151.19,152.59h-15.57v192.67h15.57V152.59z"/>
			</g>
			
				<rect x="130.95" y="336.73" transform="matrix(-1 -1.224647e-16 1.224647e-16 -1 286.8215 691.3176)" class="st6" width="24.92" height="17.86"/>
			<g>
				<path class="st11" d="M134.52,157.01h17.33c0.4,0,0.76-0.24,0.92-0.6c0.16-0.36,0.09-0.79-0.18-1.08l-16.67-18l-1.47,1.36
					l15.11,16.32h-15.04V157.01z"/>
			</g>
			
				<rect x="133.66" y="130.63" transform="matrix(-1 -1.224647e-16 1.224647e-16 -1 299.0406 288.0047)" class="st1" width="31.72" height="26.74"/>
			
				<rect x="85.99" y="130.63" transform="matrix(-1 -1.224647e-16 1.224647e-16 -1 203.7082 276.6238)" class="st1" width="31.72" height="15.36"/>
			<g>
				<path class="st1" d="M86.52,132.59h156.67c0.55,0,1-0.45,1-1s-0.45-1-1-1H86.52c-0.55,0-1,0.45-1,1S85.97,132.59,86.52,132.59z"
					/>
			</g>
			<g>
				<rect x="234.91" y="136.25" class="st1" width="1" height="65"/>
			</g>
			<path class="st12" d="M142.52,130.92"/>
			
				<rect x="122.45" y="351.4" transform="matrix(-1 -1.224647e-16 1.224647e-16 -1 286.8214 710.6511)" class="st2" width="41.92" height="7.86"/>
			<g>
				<path class="st1" d="M149.4,132.32c0.13,0,0.26-0.05,0.35-0.15l8.35-8.35h76.59l7.85,7.85c0.2,0.2,0.51,0.2,0.71,0
					c0.2-0.2,0.2-0.51,0-0.71l-8.15-8.15H157.7l-8.65,8.65c-0.2,0.2-0.2,0.51,0,0.71C149.15,132.27,149.28,132.32,149.4,132.32z"/>
			</g>
			<g>
				<path class="st1" d="M85.85,132.32c0.18,0,0.35-0.1,0.44-0.27l8.36-15.97h20.27l7.86,15.46c0.13,0.25,0.43,0.34,0.67,0.22
					c0.25-0.12,0.34-0.43,0.22-0.67l-8.14-16.01H94.05l-8.64,16.51c-0.13,0.24-0.03,0.55,0.21,0.67
					C85.7,132.31,85.78,132.32,85.85,132.32z"/>
			</g>
			<path class="st6" d="M231.74,136.25c0,2.03,1.64,3.67,3.67,3.67c2.03,0,3.67-1.64,3.67-3.67c0-2.02-1.64-3.67-3.67-3.67
				C233.38,132.59,231.74,134.23,231.74,136.25z"/>
			<g>
				<path class="st1" d="M213.73,123.82c0.21,0,0.41-0.14,0.48-0.35c0.08-0.26-0.07-0.54-0.33-0.62l-74.03-22.57
					c-0.11-0.03-0.23-0.03-0.34,0.02l-35.09,14.81c-0.25,0.11-0.37,0.4-0.27,0.65c0.11,0.25,0.4,0.37,0.65,0.27l34.92-14.74
					l73.86,22.52C213.63,123.81,213.68,123.82,213.73,123.82z"/>
			</g>
			<g>
				<path class="st1" d="M151.34,132.39c0.12,0,0.24-0.02,0.36-0.07c0.52-0.2,0.78-0.77,0.58-1.29l-11.66-30.67
					c-0.16-0.42-0.57-0.68-1.02-0.64c-0.44,0.04-0.81,0.36-0.9,0.8l-6.03,29.92c-0.11,0.54,0.24,1.07,0.78,1.18
					c0.54,0.11,1.07-0.24,1.18-0.78l5.34-26.52l10.43,27.44C150.56,132.14,150.94,132.39,151.34,132.39z"/>
			</g>
			<path class="st13" d="M137.67,100.72c0,1.11,0.9,2.02,2.02,2.02c1.11,0,2.02-0.9,2.02-2.02s-0.9-2.02-2.02-2.02
				C138.57,98.7,137.67,99.6,137.67,100.72z"/>
			<g>
				<path class="st9" d="M224.27,132.42c0.11,0,0.22-0.04,0.31-0.11l9.82-7.94v7.42c0,0.28,0.22,0.5,0.5,0.5
					c0.28,0,0.5-0.22,0.5-0.5v-8.47c0-0.19-0.11-0.37-0.28-0.45c-0.17-0.08-0.38-0.06-0.53,0.06l-10.63,8.6
					c-0.21,0.17-0.25,0.49-0.07,0.7C223.98,132.36,224.13,132.42,224.27,132.42z"/>
			</g>
			<g>
				<path class="st9" d="M214.78,132.42c0.11,0,0.22-0.04,0.31-0.11l9.82-7.94v7.42c0,0.28,0.22,0.5,0.5,0.5
					c0.28,0,0.5-0.22,0.5-0.5v-8.47c0-0.19-0.11-0.37-0.28-0.45c-0.17-0.08-0.38-0.06-0.53,0.06l-10.63,8.6
					c-0.21,0.17-0.25,0.49-0.07,0.7C214.49,132.36,214.63,132.42,214.78,132.42z"/>
			</g>
			<g>
				<path class="st9" d="M205.28,132.42c0.11,0,0.22-0.04,0.31-0.11l9.82-7.94v7.42c0,0.28,0.22,0.5,0.5,0.5
					c0.28,0,0.5-0.22,0.5-0.5v-8.47c0-0.19-0.11-0.37-0.28-0.45c-0.17-0.08-0.38-0.06-0.53,0.06l-10.63,8.6
					c-0.21,0.17-0.25,0.49-0.07,0.7C204.99,132.36,205.13,132.42,205.28,132.42z"/>
			</g>
			<g>
				<path class="st9" d="M195.79,132.42c0.11,0,0.22-0.04,0.31-0.11l9.82-7.94v7.42c0,0.28,0.22,0.5,0.5,0.5
					c0.28,0,0.5-0.22,0.5-0.5v-8.47c0-0.19-0.11-0.37-0.28-0.45c-0.17-0.08-0.38-0.06-0.53,0.06l-10.63,8.6
					c-0.21,0.17-0.25,0.49-0.07,0.7C195.49,132.36,195.64,132.42,195.79,132.42z"/>
			</g>
			<g>
				<path class="st9" d="M186.29,132.42c0.11,0,0.22-0.04,0.31-0.11l9.82-7.94v7.42c0,0.28,0.22,0.5,0.5,0.5s0.5-0.22,0.5-0.5v-8.47
					c0-0.19-0.11-0.37-0.28-0.45c-0.17-0.08-0.38-0.06-0.53,0.06l-10.63,8.6c-0.21,0.17-0.25,0.49-0.07,0.7
					C186,132.36,186.14,132.42,186.29,132.42z"/>
			</g>
			<g>
				<path class="st9" d="M176.79,132.42c0.11,0,0.22-0.04,0.31-0.11l9.82-7.94v7.42c0,0.28,0.22,0.5,0.5,0.5s0.5-0.22,0.5-0.5v-8.47
					c0-0.19-0.11-0.37-0.28-0.45c-0.17-0.08-0.38-0.06-0.53,0.06l-10.63,8.6c-0.21,0.17-0.25,0.49-0.07,0.7
					C176.5,132.36,176.65,132.42,176.79,132.42z"/>
			</g>
			<g>
				<path class="st9" d="M167.3,132.42c0.11,0,0.22-0.04,0.31-0.11l9.82-7.94v7.42c0,0.28,0.22,0.5,0.5,0.5c0.28,0,0.5-0.22,0.5-0.5
					v-8.47c0-0.19-0.11-0.37-0.28-0.45c-0.17-0.08-0.38-0.06-0.53,0.06l-10.63,8.6c-0.21,0.17-0.25,0.49-0.07,0.7
					C167.01,132.36,167.15,132.42,167.3,132.42z"/>
			</g>
			<g>
				<path class="st9" d="M157.8,132.42c0.11,0,0.22-0.04,0.31-0.11l9.82-7.94v7.42c0,0.28,0.22,0.5,0.5,0.5c0.28,0,0.5-0.22,0.5-0.5
					v-8.47c0-0.19-0.11-0.37-0.28-0.45c-0.17-0.08-0.38-0.06-0.53,0.06l-10.63,8.6c-0.21,0.17-0.25,0.49-0.07,0.7
					C157.51,132.36,157.66,132.42,157.8,132.42z"/>
			</g>
			<g>
				<path class="st1" d="M101.67,132.42c0.14,0,0.28-0.06,0.38-0.18l12.75-15.05v14.6c0,0.28,0.22,0.5,0.5,0.5
					c0.28,0,0.5-0.22,0.5-0.5v-15.96c0-0.21-0.13-0.4-0.33-0.47c-0.2-0.07-0.42-0.01-0.55,0.15l-13.63,16.09
					c-0.18,0.21-0.15,0.53,0.06,0.7C101.44,132.38,101.55,132.42,101.67,132.42z"/>
			</g>
			<g>
				<path class="st1" d="M91.86,132.42c0.16,0,0.32-0.08,0.42-0.22l9.72-14.7v14.3c0,0.28,0.22,0.5,0.5,0.5c0.28,0,0.5-0.22,0.5-0.5
					v-15.96c0-0.22-0.14-0.42-0.36-0.48c-0.21-0.06-0.44,0.02-0.56,0.2l-10.63,16.09c-0.15,0.23-0.09,0.54,0.14,0.69
					C91.67,132.39,91.77,132.42,91.86,132.42z"/>
			</g>
			<path class="st1" d="M232.26,202.59c0,1.74,1.41,3.15,3.15,3.15c1.74,0,3.15-1.41,3.15-3.15c0-1.74-1.41-3.15-3.15-3.15
				C233.67,199.44,232.26,200.85,232.26,202.59z"/>
			<line class="st8" x1="104.44" y1="360" x2="180.43" y2="360"/>
			<g>
				<path class="st1" d="M134.52,339.16h17.33c0.4,0,0.76-0.24,0.92-0.6c0.16-0.36,0.09-0.79-0.18-1.08l-16.67-18l-1.47,1.36
					l15.11,16.32h-15.04V339.16z"/>
			</g>
			<g>
				<path class="st1" d="M134.52,265.25h17.33c0.4,0,0.76-0.24,0.92-0.6s0.09-0.79-0.18-1.08l-16.67-18l-1.47,1.36l15.11,16.32
					h-15.04V265.25z"/>
			</g>
			<g>
				<path class="st1" d="M134.52,283.73h17.33c0.4,0,0.76-0.24,0.92-0.6c0.16-0.36,0.09-0.79-0.18-1.08l-16.67-18l-1.47,1.36
					l15.11,16.32h-15.04V283.73z"/>
			</g>
			<g>
				<path class="st1" d="M134.52,302.21h17.33c0.4,0,0.76-0.24,0.92-0.6c0.16-0.36,0.09-0.79-0.18-1.08l-16.67-18l-1.47,1.36
					l15.11,16.32h-15.04V302.21z"/>
			</g>
			<g>
				<path class="st1" d="M134.52,320.68h17.33c0.4,0,0.76-0.24,0.92-0.6s0.09-0.79-0.18-1.08l-16.67-18l-1.47,1.36l15.11,16.32
					h-15.04V320.68z"/>
			</g>
			<g>
				<path class="st1" d="M134.52,247.22h17.33c0.4,0,0.76-0.24,0.92-0.6c0.16-0.36,0.09-0.79-0.18-1.08l-16.67-18l-1.47,1.36
					l15.11,16.32h-15.04V247.22z"/>
			</g>
			<g>
				<path class="st1" d="M134.52,229.15h17.33c0.4,0,0.76-0.24,0.92-0.6c0.16-0.36,0.09-0.79-0.18-1.08l-16.67-18l-1.47,1.36
					l15.11,16.32h-15.04V229.15z"/>
			</g>
			<g>
				<path class="st1" d="M134.52,211.12h17.33c0.4,0,0.76-0.24,0.92-0.6c0.16-0.36,0.09-0.79-0.18-1.08l-16.67-18l-1.47,1.36
					l15.11,16.32h-15.04V211.12z"/>
			</g>
			<g>
				<path class="st1" d="M134.52,193.08h17.33c0.4,0,0.76-0.24,0.92-0.6c0.16-0.36,0.09-0.79-0.18-1.08l-16.67-18l-1.47,1.36
					l15.11,16.32h-15.04V193.08z"/>
			</g>
			<g>
				<path class="st1" d="M134.52,175.05h17.33c0.4,0,0.76-0.24,0.92-0.6s0.09-0.79-0.18-1.08l-16.67-18l-1.47,1.36l15.11,16.32
					h-15.04V175.05z"/>
			</g>
		</g>
		<g>
			<polygon class="st1" points="420.79,392.33 419.66,376.66 421.41,365.12 427.37,331.11 424.49,330.7 417.92,360.69 
				407.65,361.52 396.96,331.11 394.09,331.52 401.89,363.98 404.63,376.39 404.31,391.51 			"/>
			<polygon class="st4" points="406.64,350.42 405.63,359.39 411.73,359.87 415.46,350.42 			"/>
			<path class="st3" d="M417.89,353.71c0,3.4-2.76,6.16-6.16,6.16c-3.4,0-6.16-2.76-6.16-6.16c0-3.4,2.76-6.16,6.16-6.16
				C415.13,347.55,417.89,350.3,417.89,353.71z"/>
			<path class="st9" d="M423.12,293.21h-23.93c-4.09,0-7.4,3.31-7.4,7.4v23.93c0,4.09,3.31,7.4,7.4,7.4h23.93
				c4.09,0,7.4-3.31,7.4-7.4v-23.93C430.52,296.53,427.21,293.21,423.12,293.21z"/>
			<path class="st4" d="M413.99,353.3c0.12,0.06,0.26,0.11,0.38,0.06c0.12-0.05,0.19-0.18,0.27-0.29c0.32-0.42,1.02-0.42,1.39-0.05
				c0.37,0.37,0.41,1,0.15,1.46c-0.26,0.46-0.76,0.74-1.28,0.82c-0.34,1.22-0.48,2.5-0.42,3.76c0.85,0.06,1.69,0.12,2.54,0.19
				c0.16,0.01,0.35,0.02,0.48-0.08c0.12-0.09,0.16-0.26,0.2-0.41c0.32-1.45,0.47-2.94,0.47-4.42c0-1.45-0.18-2.95-0.92-4.19
				c-0.89-1.49-4.56-3.93-6.35-2.56C408.93,349.11,412.63,352.64,413.99,353.3z"/>
			<path class="st4" d="M408.89,351.18c-1.04,1.02-2.4,1.8-3.85,1.86c-0.07-1.63,0.65-3.27,1.89-4.33c0.7-0.6,3.03-1.92,3.99-1.28
				C411.9,348.08,409.59,350.49,408.89,351.18z"/>
			<polygon class="st2" points="420.19,381.21 404.48,380.48 392.39,434.63 386.78,431.21 393.61,439.5 409.71,394.87 
				409.46,415.12 420.38,429.58 421.07,434.8 421.36,437.02 423.31,436.78 423.66,428.83 415.21,415.09 421.17,392.35 			"/>
			<polygon class="st6" points="421.19,345.78 424.59,346.97 427.37,331.11 424.49,330.7 			"/>
			<polygon class="st6" points="401.37,343.66 397.38,345.24 394.09,331.52 396.96,331.11 			"/>
			<polygon class="st6" points="414.7,360.95 411.75,366.19 410.27,361.31 			"/>
			<path class="st6" d="M392.8,329.47c0,1.36,1.1,2.47,2.47,2.47s2.47-1.1,2.47-2.47c0-1.36-1.1-2.47-2.47-2.47
				S392.8,328.1,392.8,329.47z"/>
			<path class="st6" d="M423.75,329.93c0,1.36,1.1,2.47,2.47,2.47s2.47-1.1,2.47-2.47c0-1.36-1.1-2.47-2.47-2.47
				S423.75,328.56,423.75,329.93z"/>
			<g>
				<g>
					<path class="st6" d="M416.14,305.98c0,2.8-2.27,5.07-5.07,5.07s-5.07-2.27-5.07-5.07c0-2.8,2.27-5.07,5.07-5.07
						S416.14,303.18,416.14,305.98z"/>
					<path class="st6" d="M421.03,321.36c-0.09-5.29-4.4-9.55-9.71-9.55s-9.62,4.26-9.71,9.55H421.03z"/>
				</g>
			</g>
			<line class="st8" x1="372.57" y1="438.5" x2="448.56" y2="438.5"/>
		</g>
		<line class="st8" x1="270.57" y1="368" x2="346.56" y2="368"/>
		<g>
			<path class="st9" d="M192.12,244.21h-23.93c-4.09,0-7.4,3.31-7.4,7.4v23.93c0,4.09,3.31,7.4,7.4,7.4h23.93
				c4.09,0,7.4-3.31,7.4-7.4v-23.93C199.52,247.53,196.21,244.21,192.12,244.21z"/>
			<polygon class="st6" points="170.07,345.8 167.15,315.8 163.4,283.72 166.32,283.31 172.98,313.72 183.4,314.55 194.23,283.72 
				197.15,284.14 189.23,317.05 189.65,344.97 			"/>
			<path class="st7" d="M167.98,282.06c0,1.38-1.12,2.5-2.5,2.5s-2.5-1.12-2.5-2.5c0-1.38,1.12-2.5,2.5-2.5
				S167.98,280.67,167.98,282.06z"/>
			<path class="st7" d="M197.15,282.89c0,1.38-1.12,2.5-2.5,2.5s-2.5-1.12-2.5-2.5c0-1.38,1.12-2.5,2.5-2.5
				S197.15,281.51,197.15,282.89z"/>
			<path class="st4" d="M184.79,304.61c0,3.51-2.85,6.36-6.36,6.36c-3.51,0-6.36-2.85-6.36-6.36c0-3.51,2.85-6.36,6.36-6.36
				C181.94,298.25,184.79,301.09,184.79,304.61z"/>
			<path class="st1" d="M184.79,305.61c0,3.51-2.85,6.36-6.36,6.36c-3.51,0-6.36-2.85-6.36-6.36c0-3.51,2.85-6.36,6.36-6.36
				C181.94,299.25,184.79,302.09,184.79,305.61z"/>
			<polygon class="st2" points="189.65,344.97 186.76,390.98 183.57,390.98 180.87,345.34 178.03,345.46 176.29,392.11 
				173.84,392.05 170.07,345.8 169.51,340.1 189.58,340.37 			"/>
			<polygon class="st2" points="186.76,390.98 193.76,391.75 193.5,392.84 183.25,392.84 183.57,390.98 			"/>
			<polygon class="st2" points="176.29,392.11 176.29,393.41 166.68,393.78 166.68,392.57 173.84,392.05 			"/>
			<line class="st8" x1="155.57" y1="393.51" x2="211.56" y2="393.51"/>
		</g>
		<g>
			<path class="st2" d="M264.86,404.54c0,0.08-0.01,0.15-0.03,0.23c0,0.02-0.01,0.04-0.02,0.05c-0.02,0.06-0.04,0.12-0.08,0.18
				c-0.01,0.01-0.01,0.03-0.02,0.04c-0.04,0.07-0.09,0.14-0.15,0.21c-0.01,0.02-0.03,0.03-0.04,0.05c-0.06,0.06-0.12,0.13-0.19,0.19
				c-0.01,0.01-0.02,0.02-0.03,0.02c-0.08,0.07-0.17,0.14-0.27,0.2c-0.03,0.02-0.06,0.04-0.08,0.05c-0.08,0.05-0.17,0.1-0.26,0.15
				c-0.04,0.02-0.07,0.04-0.11,0.06c-0.1,0.05-0.2,0.1-0.31,0.15c-0.04,0.02-0.08,0.04-0.12,0.06c-0.16,0.07-0.32,0.13-0.5,0.19
				l-17.05,5.9c-0.16,0.06-0.34,0.1-0.51,0.15c-0.25,0.07-0.5,0.15-0.77,0.21c-0.32,0.07-0.66,0.13-1.01,0.19
				c-0.21,0.03-0.43,0.06-0.64,0.08c-0.27,0.03-0.53,0.07-0.81,0.09c-0.06,0-0.11,0.01-0.17,0.01c-0.44,0.03-0.88,0.05-1.32,0.05
				c-0.01,0-0.02,0-0.03,0c-0.46,0-0.93-0.01-1.39-0.04c-0.01,0-0.01,0-0.02,0c-0.46-0.03-0.91-0.07-1.34-0.13
				c-0.01,0-0.02,0-0.03,0c-0.43-0.06-0.84-0.13-1.24-0.22c-0.01,0-0.03-0.01-0.04-0.01c-0.4-0.09-0.79-0.2-1.14-0.32l-16.79-5.75
				c-0.09-0.03-0.18-0.07-0.26-0.1c-0.08-0.03-0.16-0.06-0.24-0.09c-0.08-0.03-0.15-0.07-0.22-0.1c-0.07-0.03-0.15-0.06-0.21-0.1
				c-0.06-0.03-0.12-0.07-0.17-0.1c-0.06-0.04-0.13-0.07-0.19-0.11c-0.05-0.03-0.09-0.07-0.14-0.1c-0.05-0.04-0.11-0.08-0.16-0.12
				c-0.05-0.04-0.08-0.08-0.12-0.12c-0.04-0.04-0.08-0.07-0.11-0.11c-0.04-0.05-0.07-0.1-0.1-0.15c-0.02-0.03-0.05-0.06-0.06-0.09
				c-0.02-0.04-0.03-0.08-0.05-0.12c-0.05-0.12-0.08-0.24-0.09-0.36l0.06,7.51c0,0.12,0.04,0.24,0.09,0.36
				c0.02,0.04,0.03,0.08,0.05,0.12c0.02,0.03,0.04,0.06,0.06,0.09c0.03,0.05,0.06,0.1,0.1,0.15c0.03,0.03,0.07,0.06,0.1,0.1
				c0.04,0.04,0.08,0.09,0.14,0.13c0.03,0.03,0.07,0.05,0.11,0.08c0.06,0.05,0.12,0.09,0.19,0.14c0.04,0.03,0.1,0.06,0.14,0.08
				c0.07,0.04,0.14,0.09,0.22,0.13c0.05,0.02,0.1,0.05,0.15,0.07c0.09,0.04,0.18,0.09,0.28,0.13c0.06,0.03,0.13,0.05,0.2,0.07
				c0.1,0.04,0.19,0.08,0.3,0.11c0,0,0,0,0.01,0l16.79,5.75c0.19,0.06,0.39,0.12,0.59,0.18c0.17,0.05,0.34,0.09,0.52,0.13
				c0.01,0,0.03,0.01,0.04,0.01c0.01,0,0.02,0,0.04,0.01c0.13,0.03,0.27,0.06,0.4,0.08c0.15,0.03,0.3,0.06,0.46,0.08
				c0.12,0.02,0.25,0.04,0.38,0.06c0.01,0,0.02,0,0.03,0c0.01,0,0.02,0,0.04,0.01c0.15,0.02,0.29,0.04,0.44,0.05
				c0.15,0.02,0.3,0.03,0.45,0.04c0.14,0.01,0.28,0.02,0.42,0.03c0.01,0,0.01,0,0.02,0c0.01,0,0.01,0,0.02,0
				c0.15,0.01,0.31,0.02,0.46,0.02c0.16,0.01,0.32,0.01,0.48,0.01c0.14,0,0.29,0,0.43,0c0.01,0,0.02,0,0.03,0c0.01,0,0.02,0,0.03,0
				c0.17,0,0.34,0,0.52-0.01c0.19-0.01,0.38-0.01,0.57-0.02c0.07,0,0.14-0.01,0.21-0.02c0.06,0,0.11-0.01,0.17-0.01
				c0.1-0.01,0.21-0.01,0.31-0.02c0.17-0.02,0.33-0.04,0.5-0.06c0.22-0.03,0.43-0.05,0.65-0.08c0.06-0.01,0.13-0.01,0.19-0.02
				c0.25-0.04,0.49-0.09,0.73-0.14c0.03-0.01,0.06-0.02,0.09-0.03c0.27-0.06,0.52-0.13,0.77-0.21c0.13-0.04,0.28-0.07,0.4-0.11
				c0.04-0.01,0.07-0.02,0.11-0.04l17.05-5.9c0.17-0.06,0.33-0.12,0.48-0.18c0.01,0,0.01-0.01,0.02-0.01
				c0.04-0.02,0.08-0.04,0.13-0.06c0.09-0.04,0.17-0.08,0.25-0.12c0.02-0.01,0.03-0.02,0.05-0.03c0.04-0.02,0.07-0.04,0.11-0.06
				c0.05-0.03,0.1-0.05,0.15-0.08c0.04-0.02,0.07-0.05,0.11-0.07c0.03-0.02,0.06-0.04,0.09-0.06c0.02-0.01,0.04-0.02,0.06-0.04
				c0.07-0.05,0.14-0.1,0.2-0.16c0,0,0.01-0.01,0.01-0.01c0.01-0.01,0.02-0.02,0.03-0.03c0.04-0.04,0.09-0.08,0.13-0.12
				c0.02-0.02,0.04-0.05,0.07-0.07c0.01-0.02,0.03-0.03,0.04-0.05c0.01-0.01,0.02-0.02,0.03-0.04c0.04-0.05,0.08-0.11,0.11-0.16
				c0-0.01,0.01-0.01,0.01-0.02c0.01-0.01,0.01-0.03,0.02-0.04c0.02-0.03,0.04-0.07,0.05-0.1c0.01-0.03,0.02-0.05,0.03-0.08
				c0.01-0.02,0.01-0.04,0.02-0.05c0-0.01,0.01-0.02,0.01-0.03c0.01-0.06,0.02-0.12,0.02-0.18c0,0,0-0.01,0-0.01L264.86,404.54z"/>
			<g>
				<path class="st1" d="M262.74,402.78c2.87,0.98,2.82,2.6-0.09,3.6l-17.05,5.9c-2.91,1.01-7.59,1.03-10.46,0.05l-16.79-5.75
					c-2.87-0.98-2.84-2.6,0.07-3.6l17.05-5.9c2.91-1.01,7.61-1.03,10.47-0.05L262.74,402.78z"/>
			</g>
		</g>
		<g>
			<path class="st1" d="M330.97,398.11c0,0.08-0.01,0.15-0.03,0.23c0,0.02-0.01,0.04-0.02,0.05c-0.02,0.06-0.04,0.12-0.08,0.18
				c-0.01,0.01-0.01,0.03-0.02,0.04c-0.04,0.07-0.09,0.14-0.15,0.21c-0.01,0.02-0.03,0.03-0.04,0.05c-0.06,0.06-0.12,0.13-0.19,0.19
				c-0.01,0.01-0.02,0.02-0.03,0.02c-0.08,0.07-0.17,0.14-0.27,0.2c-0.03,0.02-0.06,0.04-0.08,0.05c-0.08,0.05-0.17,0.1-0.26,0.15
				c-0.04,0.02-0.07,0.04-0.11,0.06c-0.1,0.05-0.2,0.1-0.31,0.15c-0.04,0.02-0.08,0.04-0.12,0.06c-0.16,0.07-0.32,0.13-0.5,0.19
				l-17.05,5.9c-0.16,0.06-0.34,0.1-0.51,0.15c-0.25,0.07-0.5,0.15-0.77,0.21c-0.32,0.07-0.66,0.13-1.01,0.19
				c-0.21,0.03-0.43,0.06-0.64,0.08c-0.27,0.03-0.53,0.07-0.81,0.09c-0.06,0-0.11,0.01-0.17,0.01c-0.44,0.03-0.88,0.05-1.32,0.05
				c-0.01,0-0.02,0-0.03,0c-0.46,0-0.93-0.01-1.39-0.04c-0.01,0-0.01,0-0.02,0c-0.46-0.03-0.91-0.07-1.34-0.13
				c-0.01,0-0.02,0-0.03,0c-0.43-0.06-0.84-0.13-1.24-0.22c-0.01,0-0.03-0.01-0.04-0.01c-0.4-0.09-0.79-0.2-1.14-0.32l-16.79-5.75
				c-0.09-0.03-0.18-0.07-0.26-0.1c-0.08-0.03-0.16-0.06-0.24-0.09c-0.08-0.03-0.15-0.07-0.22-0.1c-0.07-0.03-0.15-0.06-0.21-0.1
				c-0.06-0.03-0.12-0.07-0.17-0.1c-0.06-0.04-0.13-0.07-0.19-0.11c-0.05-0.03-0.09-0.07-0.14-0.1c-0.05-0.04-0.11-0.08-0.16-0.12
				c-0.05-0.04-0.08-0.08-0.12-0.12c-0.04-0.04-0.08-0.07-0.11-0.11c-0.04-0.05-0.07-0.1-0.1-0.15c-0.02-0.03-0.05-0.06-0.06-0.09
				c-0.02-0.04-0.03-0.08-0.05-0.12c-0.05-0.12-0.08-0.24-0.09-0.36l0.06,7.51c0,0.12,0.03,0.24,0.09,0.36
				c0.02,0.04,0.03,0.08,0.05,0.12c0.02,0.03,0.04,0.06,0.06,0.09c0.03,0.05,0.06,0.1,0.1,0.15c0.03,0.03,0.07,0.06,0.1,0.1
				c0.04,0.04,0.08,0.09,0.14,0.13c0.03,0.03,0.07,0.05,0.11,0.08c0.06,0.05,0.12,0.09,0.19,0.14c0.04,0.03,0.1,0.06,0.14,0.08
				c0.07,0.04,0.14,0.09,0.22,0.13c0.05,0.02,0.1,0.05,0.15,0.07c0.09,0.04,0.18,0.09,0.28,0.13c0.06,0.03,0.13,0.05,0.2,0.07
				c0.1,0.04,0.19,0.08,0.3,0.11c0,0,0,0,0.01,0l16.79,5.75c0.19,0.06,0.39,0.12,0.59,0.18c0.17,0.05,0.34,0.09,0.52,0.13
				c0.01,0,0.02,0.01,0.04,0.01c0.01,0,0.02,0,0.04,0.01c0.13,0.03,0.27,0.06,0.4,0.08c0.15,0.03,0.3,0.06,0.46,0.08
				c0.12,0.02,0.25,0.04,0.38,0.06c0.01,0,0.02,0,0.03,0c0.01,0,0.02,0,0.04,0.01c0.15,0.02,0.29,0.04,0.44,0.05
				c0.15,0.02,0.3,0.03,0.45,0.04c0.14,0.01,0.28,0.02,0.42,0.03c0.01,0,0.01,0,0.02,0c0.01,0,0.01,0,0.02,0
				c0.15,0.01,0.31,0.02,0.46,0.02c0.16,0.01,0.32,0.01,0.48,0.01c0.14,0,0.29,0,0.43,0c0.01,0,0.02,0,0.03,0c0.01,0,0.02,0,0.03,0
				c0.17,0,0.34,0,0.52-0.01c0.19-0.01,0.38-0.01,0.57-0.02c0.07,0,0.14-0.01,0.21-0.02c0.06,0,0.11-0.01,0.17-0.01
				c0.1-0.01,0.21-0.01,0.31-0.02c0.17-0.02,0.33-0.04,0.5-0.06c0.22-0.03,0.43-0.05,0.65-0.08c0.06-0.01,0.13-0.01,0.19-0.02
				c0.25-0.04,0.49-0.09,0.73-0.14c0.03-0.01,0.06-0.02,0.09-0.03c0.27-0.06,0.52-0.13,0.77-0.21c0.13-0.04,0.28-0.07,0.4-0.11
				c0.04-0.01,0.07-0.02,0.11-0.04l17.05-5.9c0.17-0.06,0.33-0.12,0.48-0.18c0.01,0,0.01-0.01,0.02-0.01
				c0.04-0.02,0.08-0.04,0.13-0.06c0.09-0.04,0.17-0.08,0.25-0.12c0.02-0.01,0.03-0.02,0.05-0.03c0.04-0.02,0.07-0.04,0.11-0.06
				c0.05-0.03,0.1-0.05,0.15-0.08c0.04-0.02,0.07-0.05,0.11-0.07c0.03-0.02,0.06-0.04,0.09-0.06c0.02-0.01,0.04-0.02,0.06-0.04
				c0.07-0.05,0.14-0.1,0.2-0.16c0,0,0.01-0.01,0.01-0.01c0.01-0.01,0.02-0.02,0.03-0.03c0.04-0.04,0.09-0.08,0.13-0.12
				c0.02-0.02,0.04-0.05,0.07-0.07c0.01-0.02,0.03-0.03,0.04-0.05c0.01-0.01,0.02-0.02,0.03-0.04c0.04-0.05,0.08-0.11,0.11-0.16
				c0-0.01,0.01-0.01,0.01-0.02c0.01-0.01,0.01-0.03,0.02-0.04c0.02-0.03,0.04-0.07,0.05-0.1c0.01-0.03,0.02-0.05,0.03-0.08
				c0.01-0.02,0.01-0.04,0.02-0.05c0-0.01,0.01-0.02,0.01-0.03c0.01-0.06,0.02-0.12,0.02-0.18c0,0,0-0.01,0-0.01L330.97,398.11z"/>
			<g>
				<path class="st9" d="M328.84,396.34c2.87,0.98,2.82,2.6-0.09,3.6l-17.05,5.9c-2.91,1.01-7.59,1.03-10.46,0.05l-16.79-5.75
					c-2.87-0.98-2.84-2.6,0.07-3.6l17.05-5.9c2.91-1.01,7.61-1.03,10.47-0.05L328.84,396.34z"/>
			</g>
		</g>
	</g>
</g>
<g id="DESIGNED_BY_FREEPIK">
</g>
</svg>
