<?xml version="1.0" encoding="utf-8"?>
<!-- Generator: Adobe Illustrator 24.0.0, SVG Export Plug-In . SVG Version: 6.00 Build 0)  -->
<svg version="1.1" id="Camada_1" xmlns="http://www.w3.org/2000/svg" xmlns:xlink="http://www.w3.org/1999/xlink" x="0px" y="0px"
	 viewBox="0 0 800 800" style="enable-background:new 0 0 800 800;" xml:space="preserve">
<style type="text/css">
	.st0{fill:#004012;}
	.st1{fill:#AA8C50;}
	.st2{fill:none;}
	.st3{fill:#FFFFFF;}
	.st4{fill:#008F50;}
	.st5{fill:#FF0A49;}
</style>
<rect x="125.28" y="125.28" class="st4" width="549.44" height="549.44"/>
<g>
	<polygon class="st3" points="434.15,453.48 405.73,417.76 405.52,417.5 406.08,429.1 406.18,432.6 406.22,432.57 406.24,432.6 
		434.15,467.42 434.15,460.12 437.41,460.12 437.41,457.57 437.41,457.47 437.33,457.47 	"/>
	<polygon class="st3" points="365.85,503.59 385.43,478.78 391.73,464.57 392.09,457.17 365.85,490.52 	"/>
	<polygon class="st3" points="365.85,471.35 365.85,485.27 392.36,451.58 392.76,451.06 393.19,436.95 393.05,437.14 	"/>
	<polygon class="st3" points="434.15,448.26 434.15,438.92 405.29,403.38 404.82,402.79 405.25,411.95 405.56,412.34 	"/>
	<polygon class="st3" points="365.85,452.59 365.85,457.47 362.59,457.47 362.59,460.12 365.85,460.12 365.85,466.13 393.31,431.58 
		393.36,431.52 393.44,429.05 394.01,416.99 393.79,417.27 	"/>
	<polygon class="st3" points="365.85,431.92 365.85,447.36 393.96,411.82 394.28,411.42 395.06,395.11 394.45,395.89 	"/>
	<polygon class="st3" points="406.34,437.92 406.8,452.79 407.24,453.34 434.15,487.14 434.15,472.61 406.51,438.12 	"/>
	<polygon class="st3" points="434.15,343.95 427.16,343.95 427.16,335.67 431.13,335.67 431.13,321.86 401.17,321.86 401.17,321.86 
		419.8,321.86 419.8,321.2 419.8,318.35 419.8,317.69 401.17,317.69 401.17,289.24 401.17,288.58 398.83,288.58 398.83,289.24 
		398.83,317.69 380.2,317.69 380.2,318.35 380.2,321.2 380.2,321.86 398.83,321.86 398.83,321.86 368.87,321.86 368.87,335.67 
		372.84,335.67 372.84,343.95 365.85,343.95 365.85,377.69 362.59,377.69 362.59,380.34 365.85,380.34 365.85,416.55 362.59,416.55 
		362.59,419.19 365.85,419.19 365.85,426.7 394.61,390.45 394.87,382.11 395.68,382.11 403.83,382.11 404.64,382.11 405.13,398.03 
		434.15,433.77 434.15,419.19 437.41,419.19 437.41,416.55 434.15,416.55 434.15,380.34 437.41,380.34 437.41,377.69 434.15,377.69 
			"/>
	<g>
		<path class="st3" d="M267.84,504.93c-2.97,2.69-3.04,6.23-0.89,8.6c2.15,2.37,5.68,2.65,8.65-0.04c2.97-2.69,3.04-6.23,0.89-8.6
			C274.34,502.52,270.81,502.24,267.84,504.93z"/>
		<path class="st3" d="M307.09,272.98c2.92-2.18,3.62-6.14,0.89-9.8c-2.73-3.66-6.73-4.12-9.65-1.95c-2.92,2.18-3.62,6.14-0.89,9.8
			C300.17,274.69,304.17,275.15,307.09,272.98z"/>
		<path class="st3" d="M255.65,476.9l-5.16,3.13l1.64,2.71c1.24,2.04,2.81,2.43,4.41,1.46c1.6-0.97,1.99-2.54,0.75-4.58
			L255.65,476.9z"/>
		<path class="st3" d="M429.86,557.26l-3.12,0.56l1.06,5.94l3.12-0.56c2.35-0.42,3.28-1.75,2.95-3.59
			C433.54,557.76,432.22,556.84,429.86,557.26z"/>
		<path class="st3" d="M283.79,294.93c1.42-1.65,1.54-2.99,0.4-3.98c-1.14-0.99-2.45-0.68-3.88,0.96l-3.89,4.5l3.48,3.01
			L283.79,294.93z"/>
		<path class="st3" d="M242.61,457.27c1.75-0.67,2.41-2.14,1.56-4.38l-1.13-2.96l-5.64,2.15l1.13,2.96
			C239.39,457.28,240.86,457.94,242.61,457.27z"/>
		<path class="st3" d="M339.88,548.5c-2.98-1.16-6.26,0.18-7.71,3.92c-1.45,3.74,0.08,6.93,3.06,8.09c2.98,1.16,6.26-0.18,7.71-3.92
			C344.39,552.85,342.87,549.66,339.88,548.5z"/>
		<path class="st3" d="M271.2,285.8l-3.01,3.48l3.29,2.85l3.01-3.48c1.45-1.68,1.54-2.93,0.46-3.86
			C273.88,283.86,272.65,284.13,271.2,285.8z"/>
		<path class="st3" d="M400,201.55c-109.6,0-198.45,88.85-198.45,198.45c0,109.6,88.85,198.45,198.45,198.45
			c109.6,0,198.45-88.85,198.45-198.45C598.45,290.4,509.6,201.55,400,201.55z M532.75,278.84c6.38,7.11,6.24,16.62-0.37,22.54
			c-6.61,5.93-16.08,5.03-22.45-2.08c-6.37-7.11-6.24-16.62,0.37-22.55C516.91,270.83,526.38,271.73,532.75,278.84z M506.6,254.92
			c4.63,3.38,7.05,7.74,7.17,12.49l-8.32,0.82c-0.1-2.77-1.02-5-3.15-6.55c-3.31-2.42-7.23-1.75-9.87,1.87
			c-2.64,3.62-2.09,7.55,1.23,9.97c2.13,1.56,4.53,1.75,7.2,1l1.76,8.18c-4.56,1.34-9.44,0.37-14.08-3.02
			c-7.61-5.55-9.46-14.73-4.16-22.01C489.69,250.4,498.99,249.37,506.6,254.92z M464.92,232.07l21.56,10.14l-3.17,6.74l-12.77-6
			l-1.46,3.11l11.21,5.27l-3.03,6.44l-11.21-5.27l-1.64,3.49l13.26,6.23l-3.17,6.74l-22.05-10.37L464.92,232.07z M413.85,220.18
			l8.02,1.28l8.91,14.9l2.09-13.15l9.51,1.51l-4.61,28.95l-8.02-1.28l-8.91-14.9l-2.09,13.15l-9.51-1.51L413.85,220.18z
			 M388.72,219.93c9.52-0.6,16.9,5.4,17.46,14.26c0.56,8.86-6.02,15.73-15.55,16.32c-9.53,0.6-16.91-5.4-17.46-14.26
			C372.62,227.4,379.19,220.53,388.72,219.93z M366.89,222.79l1.99,7.4l-8.29,2.23l5.62,20.91l-9.54,2.56l-5.62-20.91l-8.29,2.23
			l-1.99-7.4L366.89,222.79z M325.33,235.92c3.57-1.67,7.6-2.63,11.09-2.37l0.34,7.74c-3.24-0.1-6,0.4-8.32,1.49
			c-2.62,1.22-3.1,2.37-2.67,3.28c1.49,3.19,14.93-6.33,19.5,3.45c2.27,4.85,0.05,10.88-8.18,14.73c-4.44,2.07-9.43,3.07-12.84,2.68
			l-0.17-7.87c3.19,0.31,6.98-0.3,9.9-1.67c2.54-1.19,3.2-2.14,2.78-3.05c-1.56-3.34-14.98,6.22-19.61-3.68
			C314.85,245.72,317.1,239.77,325.33,235.92z M293.56,254.81c7.65-5.7,17.11-4.71,22.42,2.41c5.3,7.12,3.55,16.46-4.11,22.17
			c-7.65,5.7-17.11,4.71-22.42-2.41C284.15,269.87,285.9,260.52,293.56,254.81z M266.86,280.27c5.29-6.11,10.19-6.85,13.55-3.94
			c2.06,1.78,2.86,4.3,2.12,7.21c3.2-1.77,6.41-1.65,9.04,0.62c3.86,3.34,3.29,8.55-2,14.66l-10.79,12.47l-22.16-19.18
			L266.86,280.27z M222.46,382.52l8.02,6.94l0.8-15.34l0.8,15.34l8.02-6.94l-6.94,8.02l15.34,0.8l-15.34,0.8l6.94,8.02l-8.02-6.94
			l-0.8,15.34l-0.8-15.34l-8.02,6.94l6.94-8.02l-15.34-0.8l15.34-0.8L222.46,382.52z M231.15,454.48l-5.91,2.26l-3.1-8.11l24.06-9.2
			l4.43,11.58c2.56,6.7,0.69,12.3-4.88,14.43c-5.57,2.13-10.7-0.79-13.27-7.49L231.15,454.48z M251.64,491.72l-3.99,8.74l-4.81-7.93
			l3.27-7.1l-1.22-2.01l-5.54,3.36l-4.5-7.42l22.02-13.35l6.43,10.6c3.72,6.14,2.87,11.98-2.22,15.07
			C257.9,493.61,254.6,493.55,251.64,491.72z M281.48,519.98c-5.78,5.24-14.1,4.49-19.74-1.73c-5.63-6.22-5.56-14.57,0.22-19.81
			c5.78-5.24,14.1-4.49,19.74,1.73C287.33,506.39,287.25,514.74,281.48,519.98z M295,482.54c-17.88-22.72-28.55-51.38-28.55-82.54
			c0-73.76,59.79-133.56,133.56-133.56S533.56,326.24,533.56,400c0,27.89-8.55,53.78-23.17,75.19v-16.45
			c9.34-17.51,14.64-37.51,14.64-58.74c0-69.05-55.98-125.02-125.02-125.02S274.98,330.95,274.98,400
			c0,25.03,7.36,48.33,20.02,67.88V482.54z M306.78,546.49c1.96,1.23,4.08,1.25,6.37,0.43l2.05,7.06
			c-3.91,1.46-8.25,0.91-12.53-1.76c-7.02-4.39-9.22-12.32-5.02-19.03c4.2-6.71,12.29-8.2,19.31-3.81c4.27,2.67,6.67,6.34,7.06,10.5
			l-7.24,1.24c-0.26-2.42-1.21-4.31-3.17-5.54c-3.06-1.91-6.44-1.08-8.53,2.26C302.99,541.17,303.72,544.58,306.78,546.49z
			 M351.11,559.75c-2.82,7.27-10.59,10.34-18.41,7.31c-7.82-3.03-11.51-10.53-8.69-17.8s10.59-10.34,18.41-7.31
			C350.24,544.98,353.92,552.48,351.11,559.75z M380.99,578.46l-7.04-1.2l-7.68-13.18l-1.97,11.53l-8.34-1.42l4.34-25.38l7.03,1.2
			l7.68,13.18l1.97-11.53l8.34,1.42L380.99,578.46z M353.05,525.06l5.57-7.06c2.38,0.83,4.79,1.61,7.23,2.3v2.61l-2.47,5.56
			C359.88,527.47,356.43,526.33,353.05,525.06z M405.84,578.91l-8.68,0.14l-0.31-19.02l-7.54,0.12l-0.11-6.73l23.76-0.39l0.11,6.73
			l-7.54,0.12L405.84,578.91z M436.74,575.4l-5.45-5.6l-2.32,0.42l1.14,6.38l-8.55,1.53l-4.54-25.36l12.21-2.19
			c7.06-1.27,12.22,1.63,13.27,7.49c0.66,3.66-0.59,6.72-3.35,8.82l6.73,6.87L436.74,575.4z M434.15,524.02v-3.72
			c2-0.57,3.98-1.18,5.93-1.84l2,2.51v5.81c-1.95,0.65-3.92,1.25-5.91,1.81L434.15,524.02z M447.92,509.65l-5.84-7.33v9.7
			c-0.77,0.29-1.54,0.57-2.31,0.84c-1.09,0.38-2.18,0.75-3.28,1.1l-2.35-2.94v-5.21v-13.45l-26.65-33.47l0.27,5.68l8.15,18.38
			l5.21,11.75l9.32,21.02c-1.06,0.28-2.13,0.54-3.2,0.79c-3.1,0.72-6.23,1.32-9.39,1.79c-1.1,0.16-2.21,0.31-3.32,0.45l-14.79-36.67
			l-14.77,36.61c-1.11-0.14-2.21-0.29-3.32-0.46c-3.16-0.48-6.28-1.09-9.37-1.82c-1.07-0.25-2.14-0.52-3.2-0.8l11.02-24.83
			l-14.26,18.08l-3.7,4.69c-1.09-0.36-2.17-0.74-3.24-1.13c-2.63-0.96-5.23-2.01-7.78-3.16c-0.72-0.32-1.43-0.65-2.15-0.98v-1.54
			v-14.14l-8.79,11.06c-0.94-0.55-1.88-1.11-2.81-1.68l11.61-14.6v-13.43l-18.53,23.42c-0.88-0.63-1.75-1.28-2.61-1.93l21.14-26.73
			v-15.5l-28.62,36.06c-0.81-0.72-1.61-1.46-2.4-2.2l31.02-39.09v-62.65h1.53v-2.2h-1.53v-2.08l-5.49-11.26h-9.4v-1.68h-7.79v-14.56
			h-3.14v-9.89H321v9.89h-3.14v14.56h-8.33v1.68h-9.04L295,381.03v2.08h-1.53v2.2H295v72.07c-9.54-17.39-14.61-36.99-14.61-57.38
			c0-31.95,12.44-61.99,35.03-84.58c22.59-22.59,52.63-35.03,84.58-35.03s61.99,12.44,84.58,35.03
			c22.59,22.59,35.03,52.63,35.03,84.58c0,16.13-3.18,31.78-9.23,46.22v-86.06h-23.77v-16.31h-2.35v16.31h-24.51v-14.82h-2.35v14.82
			h-15.32v83.38l37.29,45.93c-0.81,0.72-1.63,1.43-2.46,2.13l-34.84-42.9v9.54l29.77,37.41c-0.87,0.65-1.74,1.3-2.62,1.92
			l-27.15-34.12v13.87l20.01,24.96c-0.93,0.57-1.88,1.13-2.82,1.67l-17.18-21.44v14.59l8.89,11.17
			C449.96,508.75,448.95,509.21,447.92,509.65z M472.7,564.36l-3.22-3.57l-9.14,3.51l0,4.81l-8.24,3.16l1.28-28.08l7.97-3.06
			l19.74,20.01L472.7,564.36z M499.24,551.02c-7.05,4.35-15.13,2.81-19.29-3.93c-4.15-6.73-1.9-14.65,5.15-19
			c4.29-2.65,8.64-3.17,12.54-1.68l-2.1,7.05c-2.29-0.84-4.4-0.83-6.38,0.39c-3.07,1.89-3.82,5.3-1.76,8.65
			c2.07,3.35,5.45,4.21,8.52,2.31c1.97-1.22,2.93-3.1,3.21-5.53l7.24,1.29C505.95,544.72,503.54,548.37,499.24,551.02z
			 M519.58,535.51l-12.57-14.27l-5.66,4.98l-4.45-5.05l17.83-15.71l4.45,5.05l-5.66,4.98l12.57,14.27L519.58,535.51z M536.84,519.02
			l-19.34-17.01l5.73-6.52l19.34,17.01L536.84,519.02z M558.97,489.7l-15.15,1.82l9.81,6.38l-4.62,7.09l-21.59-14.05l3.9-5.98
			l15.15-1.82l-9.81-6.38l4.62-7.09l21.59,14.05L558.97,489.7z M573.34,462.09c-3.13,7.7-10.57,11.23-17.89,8.25
			c-7.33-2.98-10.18-10.7-6.98-18.57c1.91-4.7,5.09-7.82,9.04-9.03l2.44,6.99c-2.35,0.79-3.94,2.17-4.8,4.28
			c-1.44,3.54-0.07,6.72,3.61,8.22c3.58,1.46,6.88,0.18,8.28-3.26c0.4-0.99,0.62-2.01,0.61-3.17l-6.03-2.45l2.84-6.99l10.09,4.1
			C575.33,454.16,574.77,458.58,573.34,462.09z M567.7,393.22l-0.8,15.34l-0.8-15.34l-8.02,6.94l6.94-8.02l-15.34-0.8l15.34-0.8
			l-6.94-8.02l8.02,6.94l0.8-15.34l0.8,15.34l8.02-6.94l-6.94,8.02l15.34,0.8l-15.34,0.8l6.94,8.02L567.7,393.22z"/>
		<path class="st3" d="M390.13,242.53c3.63-0.23,6.39-3.17,6.1-7.72c-0.28-4.55-3.38-7.13-7.02-6.9c-3.64,0.23-6.39,3.17-6.1,7.72
			C383.4,240.18,386.5,242.76,390.13,242.53z"/>
		<path class="st3" d="M525.73,293.96c3.4-3.05,3.5-7.07,1.07-9.79c-2.43-2.71-6.45-3.05-9.84,0c-3.4,3.05-3.5,7.07-1.07,9.79
			C518.32,296.67,522.34,297.01,525.73,293.96z"/>
		<polygon class="st3" points="460.33,557.6 465,555.81 460.35,550.66 		"/>
	</g>
</g>
</svg>
