<?xml version="1.0" encoding="utf-8"?>
<!-- Generator: Adobe Illustrator 24.0.0, SVG Export Plug-In . SVG Version: 6.00 Build 0)  -->
<svg version="1.1" id="Camada_1" xmlns="http://www.w3.org/2000/svg" xmlns:xlink="http://www.w3.org/1999/xlink" x="0px" y="0px"
	 viewBox="0 0 800 800" style="enable-background:new 0 0 800 800;" xml:space="preserve">
<style type="text/css">
	.st0{fill:#004012;}
	.st1{fill:#AA8C50;}
	.st2{fill:none;}
	.st3{fill:#FFFFFF;}
	.st4{fill:#008F50;}
	.st5{fill:#FF0A49;}
</style>
<g>
	<polygon class="st3" points="440.89,464.02 406.86,421.26 406.61,420.95 407.27,434.84 407.4,439.03 407.45,438.99 407.47,439.03 
		440.89,480.72 440.89,471.97 444.79,471.97 444.79,468.93 444.79,468.81 444.69,468.81 	"/>
	<polygon class="st3" points="359.11,524.03 382.55,494.32 390.1,477.31 390.53,468.45 359.11,508.38 	"/>
	<polygon class="st3" points="359.11,485.42 359.11,502.09 390.85,461.75 391.34,461.13 391.85,444.24 391.68,444.46 	"/>
	<polygon class="st3" points="440.89,457.78 440.89,446.6 406.34,404.05 405.77,403.35 406.29,414.3 406.66,414.77 	"/>
	<polygon class="st3" points="359.11,462.97 359.11,468.81 355.21,468.81 355.21,471.97 359.11,471.97 359.11,479.17 392,437.81 
		392.05,437.74 392.14,434.78 392.83,420.34 392.57,420.67 	"/>
	<polygon class="st3" points="359.11,438.22 359.11,456.7 392.77,414.15 393.15,413.67 394.09,394.15 393.35,395.07 	"/>
	<polygon class="st3" points="407.6,445.4 408.14,463.2 408.66,463.86 440.89,504.33 440.89,486.94 407.79,445.64 	"/>
	<polygon class="st3" points="440.89,332.9 432.51,332.9 432.51,322.98 437.27,322.98 437.27,306.45 401.41,306.45 401.41,306.45 
		423.71,306.45 423.71,305.65 423.71,302.24 423.71,301.45 401.41,301.45 401.41,267.39 401.41,266.6 398.59,266.6 398.59,267.39 
		398.59,301.45 376.29,301.45 376.29,302.24 376.29,305.65 376.29,306.45 398.59,306.45 398.59,306.45 362.73,306.45 362.73,322.98 
		367.49,322.98 367.49,332.9 359.11,332.9 359.11,373.29 355.21,373.29 355.21,376.46 359.11,376.46 359.11,419.81 355.21,419.81 
		355.21,422.98 359.11,422.98 359.11,431.96 393.55,388.57 393.85,378.59 394.83,378.59 404.58,378.59 405.56,378.59 406.14,397.64 
		440.89,440.43 440.89,422.98 444.79,422.98 444.79,419.81 440.89,419.81 440.89,376.46 444.79,376.46 444.79,373.29 440.89,373.29 
			"/>
	<g>
		<path class="st3" d="M241.77,525.63c-3.56,3.22-3.64,7.46-1.07,10.3s6.8,3.17,10.35-0.05c3.56-3.22,3.64-7.46,1.07-10.3
			S245.33,522.41,241.77,525.63z"/>
		<path class="st3" d="M288.76,247.92c3.5-2.6,4.33-7.35,1.07-11.74c-3.26-4.38-8.05-4.94-11.55-2.33
			c-3.5,2.61-4.33,7.35-1.07,11.74C280.48,249.97,285.27,250.53,288.76,247.92z"/>
		<path class="st3" d="M227.18,492.07l-6.18,3.74l1.96,3.24c1.48,2.45,3.36,2.91,5.28,1.74c1.92-1.16,2.38-3.04,0.9-5.49
			L227.18,492.07z"/>
		<path class="st3" d="M435.75,588.28l-3.73,0.67l1.27,7.11l3.73-0.67c2.82-0.5,3.92-2.09,3.53-4.3
			C440.16,588.88,438.57,587.78,435.75,588.28z"/>
		<path class="st3" d="M260.87,274.2c1.71-1.97,1.84-3.58,0.47-4.76c-1.36-1.18-2.94-0.82-4.64,1.15l-4.66,5.38l4.17,3.61
			L260.87,274.2z"/>
		<path class="st3" d="M211.57,468.56c2.1-0.8,2.89-2.57,1.86-5.24l-1.35-3.54l-6.75,2.58l1.35,3.54
			C207.7,468.58,209.47,469.36,211.57,468.56z"/>
		<path class="st3" d="M328.02,577.8c-3.57-1.38-7.5,0.21-9.23,4.69c-1.73,4.48,0.09,8.3,3.67,9.68c3.57,1.38,7.5-0.21,9.23-4.69
			S331.6,579.18,328.02,577.8z"/>
		<path class="st3" d="M245.8,263.28l-3.61,4.17l3.94,3.41l3.61-4.17c1.74-2.01,1.84-3.51,0.55-4.62
			C249,260.95,247.53,261.27,245.8,263.28z"/>
		<path class="st3" d="M400,162.4c-131.22,0-237.6,106.38-237.6,237.6S268.78,637.6,400,637.6c131.22,0,237.6-106.38,237.6-237.6
			S531.22,162.4,400,162.4z M558.94,254.94c7.63,8.51,7.48,19.9-0.44,26.99c-7.91,7.1-19.25,6.02-26.88-2.49
			c-7.63-8.51-7.47-19.9,0.44-26.99C539.97,245.35,551.31,246.43,558.94,254.94z M527.63,226.3c5.55,4.05,8.44,9.27,8.58,14.95
			l-9.96,0.98c-0.12-3.32-1.22-5.98-3.77-7.84c-3.97-2.9-8.65-2.09-11.81,2.24c-3.16,4.33-2.5,9.04,1.47,11.93
			c2.55,1.86,5.42,2.09,8.62,1.2l2.1,9.79c-5.45,1.61-11.31,0.44-16.85-3.61c-9.11-6.65-11.33-17.64-4.98-26.35
			C507.38,220.89,518.52,219.65,527.63,226.3z M477.72,198.95l25.81,12.13l-3.79,8.07l-15.29-7.19l-1.75,3.72l13.43,6.31l-3.63,7.71
			l-13.43-6.31l-1.96,4.17l15.88,7.46l-3.8,8.07l-26.4-12.41L477.72,198.95z M416.59,184.71l9.61,1.53l10.66,17.84l2.51-15.75
			l11.39,1.81l-5.52,34.66l-9.61-1.53l-10.66-17.84l-2.51,15.74l-11.39-1.81L416.59,184.71z M386.49,184.41
			c11.4-0.71,20.24,6.47,20.9,17.07c0.66,10.6-7.21,18.83-18.61,19.54c-11.41,0.71-20.24-6.47-20.9-17.07
			C367.21,193.35,375.09,185.12,386.49,184.41z M360.36,187.84l2.38,8.86l-9.93,2.67l6.72,25.03l-11.43,3.07l-6.72-25.03l-9.93,2.67
			l-2.38-8.86L360.36,187.84z M310.6,203.55c4.27-2,9.1-3.15,13.28-2.84l0.41,9.27c-3.88-0.12-7.19,0.48-9.96,1.78
			c-3.13,1.46-3.71,2.84-3.2,3.93c1.78,3.81,17.87-7.58,23.35,4.13c2.72,5.81,0.06,13.03-9.79,17.64
			c-5.31,2.48-11.29,3.67-15.38,3.21l-0.2-9.42c3.83,0.37,8.35-0.36,11.85-2c3.04-1.42,3.84-2.57,3.33-3.66
			c-1.87-4-17.93,7.44-23.48-4.41C298.05,215.29,300.75,208.16,310.6,203.55z M272.56,226.18c9.16-6.83,20.49-5.64,26.84,2.88
			c6.35,8.52,4.25,19.71-4.92,26.54c-9.16,6.83-20.49,5.64-26.84-2.88C261.3,244.2,263.4,233,272.56,226.18z M240.59,256.65
			c6.33-7.31,12.2-8.2,16.22-4.72c2.46,2.13,3.43,5.15,2.54,8.63c3.83-2.12,7.67-1.97,10.82,0.75c4.62,4,3.94,10.23-2.39,17.55
			l-12.92,14.93l-26.53-22.96L240.59,256.65z M187.44,379.07l9.6,8.31l0.96-18.36l0.96,18.36l9.6-8.31l-8.31,9.6l18.36,0.96
			l-18.36,0.96l8.31,9.6l-9.6-8.31L198,410.25l-0.96-18.36l-9.6,8.31l8.31-9.6l-18.36-0.96l18.36-0.96L187.44,379.07z
			 M197.84,465.23l-7.08,2.71l-3.71-9.71l28.8-11.02l5.3,13.87c3.07,8.02,0.82,14.73-5.84,17.28s-12.81-0.95-15.88-8.97
			L197.84,465.23z M222.38,509.82l-4.78,10.47l-5.75-9.49l3.91-8.5l-1.46-2.41l-6.63,4.02l-5.39-8.89l26.37-15.98l7.69,12.69
			c4.45,7.35,3.44,14.35-2.66,18.04C229.88,512.07,225.92,512,222.38,509.82z M258.1,543.65c-6.92,6.27-16.89,5.37-23.63-2.07
			c-6.74-7.44-6.66-17.45,0.26-23.72c6.92-6.27,16.89-5.37,23.63,2.07C265.1,527.37,265.02,537.38,258.1,543.65z M274.29,498.82
			c-21.41-27.2-34.19-61.52-34.19-98.82c0-88.31,71.59-159.9,159.9-159.9S559.9,311.69,559.9,400c0,33.39-10.24,64.38-27.74,90.03
			v-19.7c11.18-20.97,17.53-44.9,17.53-70.33c0-82.67-67.02-149.68-149.68-149.68S250.32,317.33,250.32,400
			c0,29.96,8.81,57.87,23.97,81.27V498.82z M288.39,575.39c2.35,1.47,4.88,1.5,7.63,0.51l2.46,8.45c-4.68,1.75-9.88,1.09-15-2.11
			c-8.4-5.26-11.04-14.75-6.01-22.78c5.02-8.03,14.71-9.81,23.12-4.56c5.12,3.2,7.98,7.59,8.45,12.57l-8.67,1.48
			c-0.32-2.9-1.44-5.17-3.8-6.64c-3.66-2.29-7.71-1.29-10.21,2.7C283.86,569.02,284.73,573.1,288.39,575.39z M341.46,591.26
			c-3.37,8.71-12.68,12.38-22.04,8.75c-9.37-3.63-13.78-12.61-10.4-21.31s12.68-12.38,22.04-8.75
			C340.42,573.58,344.83,582.56,341.46,591.26z M377.24,613.67l-8.42-1.44l-9.19-15.78l-2.36,13.81l-9.99-1.71l5.19-30.39l8.42,1.44
			l9.19,15.78l2.36-13.81l9.99,1.71L377.24,613.67z M343.79,549.73l6.67-8.45c2.85,1,5.73,1.92,8.66,2.75v3.13l-2.95,6.66
			C351.96,552.62,347.84,551.25,343.79,549.73z M406.99,614.2l-10.39,0.17l-0.37-22.77l-9.03,0.15l-0.13-8.06l28.45-0.46l0.13,8.06
			l-9.03,0.15L406.99,614.2z M443.98,609.99l-6.53-6.71l-2.78,0.5l1.37,7.63l-10.24,1.83l-5.44-30.36l14.62-2.62
			c8.46-1.51,14.63,1.95,15.89,8.97c0.78,4.38-0.71,8.05-4.02,10.57l8.05,8.23L443.98,609.99z M440.89,548.48v-4.45
			c2.39-0.68,4.76-1.41,7.11-2.21l2.39,3v6.96c-2.33,0.77-4.69,1.5-7.07,2.17L440.89,548.48z M457.38,531.28l-6.99-8.78v11.61
			c-0.92,0.34-1.84,0.68-2.76,1.01c-1.3,0.46-2.61,0.89-3.93,1.31l-2.81-3.53v-6.24v-16.1l-31.9-40.07l0.33,6.8l9.76,22l6.24,14.06
			l11.16,25.16c-1.27,0.33-2.55,0.65-3.83,0.95c-3.71,0.86-7.46,1.58-11.24,2.14c-1.32,0.2-2.65,0.37-3.98,0.53l-17.71-43.9
			l-17.68,43.83c-1.33-0.17-2.65-0.35-3.97-0.55c-3.78-0.58-7.52-1.31-11.22-2.18c-1.28-0.3-2.56-0.62-3.83-0.96l13.19-29.73
			l-17.08,21.64l-4.43,5.61c-1.3-0.43-2.59-0.89-3.88-1.36c-3.15-1.15-6.26-2.41-9.32-3.78c-0.86-0.39-1.72-0.78-2.57-1.18v-1.84
			v-16.93l-10.53,13.25c-1.13-0.66-2.25-1.33-3.37-2.01l13.9-17.48V488.5l-22.18,28.04c-1.05-0.76-2.1-1.53-3.13-2.31l25.31-32
			v-18.56l-34.26,43.18c-0.97-0.87-1.93-1.74-2.87-2.64l37.14-46.8v-75h1.83v-2.63h-1.83v-2.49l-6.57-13.49h-11.26v-2.01h-9.33
			v-17.43h-3.76v-11.84h-2.59v11.84h-3.76v17.43h-9.97v2.01h-10.82l-6.57,13.49v2.49h-1.83v2.63h1.83v86.29
			c-11.42-20.82-17.49-44.29-17.49-68.7c0-38.25,14.9-74.21,41.94-101.26c27.05-27.05,63.01-41.94,101.26-41.94
			s74.21,14.9,101.26,41.94c27.05,27.05,41.94,63.01,41.94,101.26c0,19.31-3.8,38.04-11.05,55.34V352.31h-28.46v-19.53h-2.81v19.53
			h-29.34v-17.75h-2.81v17.75h-18.35v99.83l44.65,54.99c-0.97,0.86-1.95,1.71-2.94,2.55l-41.71-51.37v11.42l35.64,44.79
			c-1.04,0.78-2.08,1.55-3.14,2.3l-32.51-40.85v16.61l23.95,29.88c-1.12,0.68-2.25,1.35-3.38,2l-20.57-25.67v17.47l10.64,13.37
			C459.82,530.2,458.6,530.75,457.38,531.28z M487.04,596.78l-3.86-4.28l-10.94,4.2l-0.01,5.76l-9.87,3.79l1.53-33.61l9.54-3.66
			l23.63,23.95L487.04,596.78z M518.82,580.81c-8.44,5.2-18.12,3.36-23.09-4.71c-4.97-8.06-2.28-17.54,6.16-22.75
			c5.14-3.17,10.34-3.79,15.01-2.01l-2.51,8.44c-2.74-1-5.27-0.99-7.63,0.46c-3.68,2.27-4.58,6.34-2.1,10.36
			c2.48,4.01,6.52,5.04,10.2,2.77c2.36-1.46,3.51-3.72,3.84-6.61l8.67,1.54C526.85,573.26,523.96,577.64,518.82,580.81z
			 M543.17,562.23l-15.05-17.09l-6.78,5.97l-5.33-6.05l21.35-18.81l5.33,6.05l-6.78,5.97l15.05,17.09L543.17,562.23z M563.83,542.49
			l-23.15-20.36l6.87-7.81l23.15,20.36L563.83,542.49z M590.33,507.39l-18.14,2.18l11.74,7.64l-5.53,8.49l-25.85-16.83l4.66-7.16
			l18.14-2.18l-11.74-7.64l5.53-8.49L595,500.23L590.33,507.39z M607.53,474.33c-3.75,9.22-12.65,13.44-21.42,9.88
			c-8.77-3.57-12.19-12.81-8.36-22.23c2.29-5.63,6.09-9.36,10.82-10.81l2.92,8.37c-2.81,0.95-4.72,2.6-5.75,5.13
			c-1.73,4.24-0.09,8.05,4.32,9.84c4.28,1.74,8.23,0.21,9.91-3.91c0.48-1.18,0.74-2.41,0.73-3.79l-7.22-2.94l3.4-8.36l12.08,4.91
			C609.92,464.84,609.24,470.13,607.53,474.33z M600.78,391.88l-0.96,18.36l-0.96-18.36l-9.6,8.31l8.31-9.6l-18.36-0.96l18.36-0.96
			l-8.31-9.6l9.6,8.31l0.96-18.36l0.96,18.36l9.6-8.31l-8.31,9.6l18.36,0.96l-18.36,0.96l8.31,9.6L600.78,391.88z"/>
		<path class="st3" d="M388.18,211.47c4.35-0.27,7.65-3.79,7.3-9.25c-0.34-5.45-4.05-8.53-8.4-8.26c-4.35,0.27-7.65,3.79-7.31,9.24
			C380.12,208.66,383.83,211.74,388.18,211.47z"/>
		<path class="st3" d="M550.53,273.05c4.07-3.65,4.19-8.47,1.28-11.72c-2.91-3.25-7.72-3.65-11.79,0
			c-4.07,3.65-4.19,8.47-1.28,11.72C541.66,276.29,546.47,276.69,550.53,273.05z"/>
		<polygon class="st3" points="472.23,588.69 477.83,586.54 472.25,580.38 		"/>
	</g>
</g>
</svg>
