<?xml version="1.0" encoding="utf-8"?>
<!-- Generator: Adobe Illustrator 24.0.0, SVG Export Plug-In . SVG Version: 6.00 Build 0)  -->
<svg version="1.1" id="Camada_1" xmlns="http://www.w3.org/2000/svg" xmlns:xlink="http://www.w3.org/1999/xlink" x="0px" y="0px"
	 viewBox="0 0 338.33 314.68" style="enable-background:new 0 0 338.33 314.68;" xml:space="preserve">
<style type="text/css">
	.st0{fill:#004012;}
	.st1{fill:#AA8C50;}
	.st2{fill:none;}
	.st3{fill:#FFFFFF;}
	.st4{fill:#008F50;}
	.st5{fill:#FF0A49;}
</style>
<g id="outline-location_on-24px" transform="translate(0 24)">
	<g id="Outline-2" transform="translate(3.333 1.333)">
		<g id="Grupo_182">
			<path id="Caminho_2742" class="st3" d="M202.4,32.68c-38.37-0.03-69.5,31.04-69.53,69.41c0,0.04,0,0.08,0,0.12
				c0,52.14,69.53,129.12,69.53,129.12s69.53-76.98,69.53-129.12c0.03-38.37-31.04-69.5-69.41-69.53
				C202.48,32.68,202.44,32.68,202.4,32.68z M152.73,102.21c0-27.43,22.23-49.66,49.66-49.66s49.66,22.23,49.66,49.66
				c0,28.6-28.6,71.41-49.66,98.13C181.74,173.81,152.73,130.52,152.73,102.21z"/>
			<circle id="Elipse_91" class="st3" cx="202.4" cy="102.21" r="24.84"/>
		</g>
	</g>
</g>
</svg>
